<svg width="149" height="62" viewBox="0 0 149 62" fill="none" xmlns="http://www.w3.org/2000/svg">
<path d="M14.5114 29.3249C12.4594 29.3249 10.5467 28.9955 8.77338 28.3369C7.02538 27.6529 5.50538 26.6902 4.21338 25.4489C2.92138 24.2075 1.90804 22.7509 1.17338 21.0789C0.464042 19.4069 0.109375 17.5702 0.109375 15.5689C0.109375 13.5675 0.464042 11.7309 1.17338 10.0589C1.90804 8.38685 2.92138 6.93019 4.21338 5.68885C5.53071 4.44752 7.06338 3.49752 8.81138 2.83885C10.5594 2.15485 12.472 1.81285 14.5494 1.81285C16.8547 1.81285 18.932 2.21819 20.7814 3.02885C22.656 3.81419 24.2267 4.97952 25.4934 6.52485L21.5414 10.1729C20.6294 9.13418 19.616 8.36152 18.5014 7.85485C17.3867 7.32285 16.1707 7.05685 14.8534 7.05685C13.612 7.05685 12.472 7.25952 11.4334 7.66485C10.3947 8.07018 9.49538 8.65285 8.73538 9.41285C7.97538 10.1729 7.38004 11.0722 6.94938 12.1109C6.54404 13.1495 6.34138 14.3022 6.34138 15.5689C6.34138 16.8355 6.54404 17.9882 6.94938 19.0269C7.38004 20.0655 7.97538 20.9649 8.73538 21.7249C9.49538 22.4849 10.3947 23.0675 11.4334 23.4729C12.472 23.8782 13.612 24.0809 14.8534 24.0809C16.1707 24.0809 17.3867 23.8275 18.5014 23.3209C19.616 22.7889 20.6294 21.9909 21.5414 20.9269L25.4934 24.5749C24.2267 26.1202 22.656 27.2982 20.7814 28.1089C18.932 28.9195 16.842 29.3249 14.5114 29.3249Z" fill="#6026BE"/>
<path d="M38.7325 29.1349C36.6552 29.1349 34.8059 28.6915 33.1845 27.8049C31.5632 26.8929 30.2838 25.6515 29.3465 24.0809C28.4092 22.5102 27.9405 20.7242 27.9405 18.7229C27.9405 16.6962 28.4092 14.9102 29.3465 13.3649C30.2838 11.7942 31.5632 10.5655 33.1845 9.67885C34.8059 8.79219 36.6552 8.34885 38.7325 8.34885C40.8352 8.34885 42.6972 8.79219 44.3185 9.67885C45.9652 10.5655 47.2445 11.7815 48.1565 13.3269C49.0939 14.8722 49.5625 16.6709 49.5625 18.7229C49.5625 20.7242 49.0939 22.5102 48.1565 24.0809C47.2445 25.6515 45.9652 26.8929 44.3185 27.8049C42.6972 28.6915 40.8352 29.1349 38.7325 29.1349ZM38.7325 25.0689C39.8979 25.0689 40.9365 24.8155 41.8485 24.3089C42.7605 23.8022 43.4699 23.0675 43.9765 22.1049C44.5085 21.1422 44.7745 20.0149 44.7745 18.7229C44.7745 17.4055 44.5085 16.2782 43.9765 15.3409C43.4699 14.3782 42.7605 13.6435 41.8485 13.1369C40.9365 12.6302 39.9105 12.3769 38.7705 12.3769C37.6052 12.3769 36.5665 12.6302 35.6545 13.1369C34.7678 13.6435 34.0585 14.3782 33.5265 15.3409C32.9945 16.2782 32.7285 17.4055 32.7285 18.7229C32.7285 20.0149 32.9945 21.1422 33.5265 22.1049C34.0585 23.0675 34.7678 23.8022 35.6545 24.3089C36.5665 24.8155 37.5925 25.0689 38.7325 25.0689Z" fill="white"/>
<path d="M62.6927 29.1349C60.742 29.1349 58.9814 28.7042 57.4107 27.8429C55.8654 26.9562 54.6494 25.7402 53.7627 24.1949C52.876 22.6495 52.4327 20.8255 52.4327 18.7229C52.4327 16.6202 52.876 14.7962 53.7627 13.2509C54.6494 11.7055 55.8654 10.5022 57.4107 9.64085C58.9814 8.77952 60.742 8.34885 62.6927 8.34885C64.39 8.34885 65.91 8.72885 67.2527 9.48885C68.5954 10.2235 69.6594 11.3509 70.4447 12.8709C71.23 14.3909 71.6227 16.3415 71.6227 18.7229C71.6227 21.0789 71.2427 23.0295 70.4827 24.5749C69.7227 26.0949 68.6714 27.2349 67.3287 27.9949C65.986 28.7549 64.4407 29.1349 62.6927 29.1349ZM63.2627 25.0689C64.4027 25.0689 65.416 24.8155 66.3027 24.3089C67.2147 23.8022 67.9367 23.0675 68.4687 22.1049C69.026 21.1422 69.3047 20.0149 69.3047 18.7229C69.3047 17.4055 69.026 16.2782 68.4687 15.3409C67.9367 14.3782 67.2147 13.6435 66.3027 13.1369C65.416 12.6302 64.4027 12.3769 63.2627 12.3769C62.1227 12.3769 61.0967 12.6302 60.1847 13.1369C59.298 13.6435 58.576 14.3782 58.0187 15.3409C57.4867 16.2782 57.2207 17.4055 57.2207 18.7229C57.2207 20.0149 57.4867 21.1422 58.0187 22.1049C58.576 23.0675 59.298 23.8022 60.1847 24.3089C61.0967 24.8155 62.1227 25.0689 63.2627 25.0689ZM69.4187 28.8689V24.0809L69.6087 18.6849L69.2287 13.2889V0.672852H73.9407V28.8689H69.4187Z" fill="white"/>
<path d="M89.7306 29.1349C87.4759 29.1349 85.4999 28.6915 83.8026 27.8049C82.1306 26.8929 80.8259 25.6515 79.8886 24.0809C78.9766 22.5102 78.5206 20.7242 78.5206 18.7229C78.5206 16.6962 78.9639 14.9102 79.8506 13.3649C80.7626 11.7942 82.0039 10.5655 83.5746 9.67885C85.1706 8.79219 86.9819 8.34885 89.0086 8.34885C90.9846 8.34885 92.7453 8.77952 94.2906 9.64085C95.8359 10.5022 97.0519 11.7182 97.9386 13.2889C98.8253 14.8595 99.2686 16.7089 99.2686 18.8369C99.2686 19.0395 99.2559 19.2675 99.2306 19.5209C99.2306 19.7742 99.2179 20.0149 99.1926 20.2429H82.2826V17.0889H96.6846L94.8226 18.0769C94.8479 16.9115 94.6073 15.8855 94.1006 14.9989C93.5939 14.1122 92.8973 13.4155 92.0106 12.9089C91.1493 12.4022 90.1486 12.1489 89.0086 12.1489C87.8433 12.1489 86.8173 12.4022 85.9306 12.9089C85.0693 13.4155 84.3853 14.1249 83.8786 15.0369C83.3973 15.9235 83.1566 16.9749 83.1566 18.1909V18.9509C83.1566 20.1669 83.4353 21.2435 83.9926 22.1809C84.5499 23.1182 85.3353 23.8402 86.3486 24.3469C87.3619 24.8535 88.5273 25.1069 89.8446 25.1069C90.9846 25.1069 92.0106 24.9295 92.9226 24.5749C93.8346 24.2202 94.6453 23.6629 95.3546 22.9029L97.9006 25.8289C96.9886 26.8929 95.8359 27.7162 94.4426 28.2989C93.0746 28.8562 91.5039 29.1349 89.7306 29.1349Z" fill="white"/>
<path d="M21.2831 61.3249C19.1551 61.3249 17.1158 61.0462 15.1651 60.4889C13.2144 59.9062 11.6438 59.1589 10.4531 58.2469L12.5431 53.6109C13.6831 54.4215 15.0258 55.0929 16.5711 55.6249C18.1418 56.1315 19.7251 56.3849 21.3211 56.3849C22.5371 56.3849 23.5124 56.2709 24.2471 56.0429C25.0071 55.7895 25.5644 55.4475 25.9191 55.0169C26.2738 54.5862 26.4511 54.0922 26.4511 53.5349C26.4511 52.8255 26.1724 52.2682 25.6151 51.8629C25.0578 51.4322 24.3231 51.0902 23.4111 50.8369C22.4991 50.5582 21.4858 50.3049 20.3711 50.0769C19.2818 49.8235 18.1798 49.5195 17.0651 49.1649C15.9758 48.8102 14.9751 48.3542 14.0631 47.7969C13.1511 47.2395 12.4038 46.5049 11.8211 45.5929C11.2638 44.6809 10.9851 43.5155 10.9851 42.0969C10.9851 40.5769 11.3904 39.1962 12.2011 37.9549C13.0371 36.6882 14.2784 35.6875 15.9251 34.9529C17.5971 34.1929 19.6871 33.8129 22.1951 33.8129C23.8671 33.8129 25.5138 34.0155 27.1351 34.4209C28.7564 34.8009 30.1878 35.3835 31.4291 36.1689L29.5291 40.8429C28.2878 40.1335 27.0464 39.6142 25.8051 39.2849C24.5638 38.9302 23.3478 38.7529 22.1571 38.7529C20.9664 38.7529 19.9911 38.8922 19.2311 39.1709C18.4711 39.4495 17.9264 39.8169 17.5971 40.2729C17.2678 40.7035 17.1031 41.2102 17.1031 41.7929C17.1031 42.4769 17.3818 43.0342 17.9391 43.4649C18.4964 43.8702 19.2311 44.1995 20.1431 44.4529C21.0551 44.7062 22.0558 44.9595 23.1451 45.2129C24.2598 45.4662 25.3618 45.7575 26.4511 46.0869C27.5658 46.4162 28.5791 46.8595 29.4911 47.4169C30.4031 47.9742 31.1378 48.7089 31.6951 49.6209C32.2778 50.5329 32.5691 51.6855 32.5691 53.0789C32.5691 54.5735 32.1511 55.9415 31.3151 57.1829C30.4791 58.4242 29.2251 59.4249 27.5531 60.1849C25.9064 60.9449 23.8164 61.3249 21.2831 61.3249Z" fill="#6026BE"/>
<path d="M44.3755 61.1349C42.1462 61.1349 40.4235 60.5649 39.2075 59.4249C37.9915 58.2595 37.3835 56.5495 37.3835 54.2949V36.0929H42.1335V54.1809C42.1335 55.1435 42.3742 55.8909 42.8555 56.4229C43.3622 56.9549 44.0588 57.2209 44.9455 57.2209C46.0095 57.2209 46.8962 56.9422 47.6055 56.3849L48.9355 59.7669C48.3782 60.2229 47.6942 60.5649 46.8835 60.7929C46.0728 61.0209 45.2368 61.1349 44.3755 61.1349ZM34.0395 44.5289V40.7289H47.5675V44.5289H34.0395Z" fill="white"/>
<path d="M52.843 60.8689V40.5769H57.365V46.1629L56.833 44.5289C57.441 43.1609 58.391 42.1222 59.683 41.4129C61.0003 40.7035 62.6343 40.3489 64.585 40.3489V44.8709C64.3823 44.8202 64.1923 44.7949 64.015 44.7949C63.8377 44.7695 63.6603 44.7569 63.483 44.7569C61.6843 44.7569 60.253 45.2889 59.189 46.3529C58.125 47.3915 57.593 48.9495 57.593 51.0269V60.8689H52.843Z" fill="white"/>
<path d="M77.9669 61.1349C75.7123 61.1349 73.7363 60.6915 72.0389 59.8049C70.3669 58.8929 69.0623 57.6515 68.1249 56.0809C67.2129 54.5102 66.7569 52.7242 66.7569 50.7229C66.7569 48.6962 67.2003 46.9102 68.0869 45.3649C68.9989 43.7942 70.2403 42.5655 71.8109 41.6789C73.4069 40.7922 75.2183 40.3489 77.2449 40.3489C79.2209 40.3489 80.9816 40.7795 82.5269 41.6409C84.0723 42.5022 85.2883 43.7182 86.1749 45.2889C87.0616 46.8595 87.5049 48.7089 87.5049 50.8369C87.5049 51.0395 87.4923 51.2675 87.4669 51.5209C87.4669 51.7742 87.4543 52.0149 87.4289 52.2429H70.5189V49.0889H84.9209L83.0589 50.0769C83.0843 48.9115 82.8436 47.8855 82.3369 46.9989C81.8303 46.1122 81.1336 45.4155 80.2469 44.9089C79.3856 44.4022 78.3849 44.1489 77.2449 44.1489C76.0796 44.1489 75.0536 44.4022 74.1669 44.9089C73.3056 45.4155 72.6216 46.1249 72.1149 47.0369C71.6336 47.9235 71.3929 48.9749 71.3929 50.1909V50.9509C71.3929 52.1669 71.6716 53.2435 72.2289 54.1809C72.7863 55.1182 73.5716 55.8402 74.5849 56.3469C75.5983 56.8535 76.7636 57.1069 78.0809 57.1069C79.2209 57.1069 80.2469 56.9295 81.1589 56.5749C82.0709 56.2202 82.8816 55.6629 83.5909 54.9029L86.1369 57.8289C85.2249 58.8929 84.0723 59.7162 82.6789 60.2989C81.3109 60.8562 79.7403 61.1349 77.9669 61.1349Z" fill="white"/>
<path d="M104.013 60.8689V56.7649L103.747 55.8909V48.7089C103.747 47.3155 103.329 46.2389 102.493 45.4789C101.657 44.6935 100.39 44.3009 98.693 44.3009C97.553 44.3009 96.4256 44.4782 95.311 44.8329C94.2216 45.1875 93.297 45.6815 92.537 46.3149L90.6749 42.8569C91.7643 42.0209 93.0563 41.4002 94.551 40.9949C96.071 40.5642 97.6416 40.3489 99.263 40.3489C102.202 40.3489 104.469 41.0582 106.065 42.4769C107.686 43.8702 108.497 46.0362 108.497 48.9749V60.8689H104.013ZM97.629 61.1349C96.109 61.1349 94.779 60.8815 93.639 60.3749C92.499 59.8429 91.6123 59.1209 90.979 58.2089C90.371 57.2715 90.067 56.2202 90.067 55.0549C90.067 53.9149 90.333 52.8889 90.865 51.9769C91.4223 51.0649 92.3216 50.3429 93.563 49.8109C94.8043 49.2789 96.451 49.0129 98.503 49.0129H104.393V52.1669H98.845C97.2236 52.1669 96.1343 52.4329 95.577 52.9649C95.0196 53.4715 94.741 54.1049 94.741 54.8649C94.741 55.7262 95.083 56.4102 95.767 56.9169C96.451 57.4235 97.401 57.6769 98.617 57.6769C99.7823 57.6769 100.821 57.4109 101.733 56.8789C102.67 56.3469 103.342 55.5615 103.747 54.5229L104.545 57.3729C104.089 58.5635 103.266 59.4882 102.075 60.1469C100.91 60.8055 99.4276 61.1349 97.629 61.1349Z" fill="white"/>
<path d="M140.205 40.3489C141.826 40.3489 143.258 40.6655 144.499 41.2989C145.766 41.9322 146.754 42.9075 147.463 44.2249C148.172 45.5169 148.527 47.1889 148.527 49.2409V60.8689H143.777V49.8489C143.777 48.0502 143.384 46.7075 142.599 45.8209C141.814 44.9342 140.686 44.4909 139.217 44.4909C138.178 44.4909 137.254 44.7189 136.443 45.1749C135.658 45.6309 135.037 46.3022 134.581 47.1889C134.15 48.0755 133.935 49.2029 133.935 50.5709V60.8689H129.185V49.8489C129.185 48.0502 128.792 46.7075 128.007 45.8209C127.222 44.9342 126.094 44.4909 124.625 44.4909C123.586 44.4909 122.662 44.7189 121.851 45.1749C121.066 45.6309 120.445 46.3022 119.989 47.1889C119.558 48.0755 119.343 49.2029 119.343 50.5709V60.8689H114.593V40.5769H119.115V45.9729L118.317 44.3769C119.001 43.0595 119.989 42.0589 121.281 41.3749C122.598 40.6909 124.093 40.3489 125.765 40.3489C127.665 40.3489 129.312 40.8175 130.705 41.7549C132.124 42.6922 133.061 44.1109 133.517 46.0109L131.655 45.3649C132.314 43.8449 133.403 42.6289 134.923 41.7169C136.443 40.8049 138.204 40.3489 140.205 40.3489Z" fill="white"/>
</svg>
